<svg
    viewBox="0 0 18 20"
    fill="none"
    xmlns="http://www.w3.org/2000/svg"
    stroke="currentColor"
    fill="currentColor"
  >
    <path
      fill-rule="evenodd"
      clip-rule="evenodd"
      d="M3.10489 0.00251121C1.36438 -0.0718696 -0.0646827 1.51598 0.0022601 3.44988L0.227775 9.96474C0.256723 10.801 0.568687 11.5944 1.1013 12.1862L7.25802 19.027C8.42566 20.3243 10.3188 20.3243 11.4864 19.027L17.1243 12.7627C18.2919 11.4653 18.2919 9.36184 17.1243 8.06446L10.9675 1.22366C10.4349 0.631872 9.72093 0.285248 8.96826 0.253083L3.10489 0.00251121ZM7.50027 8.33309C8.2787 7.46817 8.2787 6.06587 7.50027 5.20095C6.72185 4.33603 5.45977 4.33603 4.68134 5.20095C3.90292 6.06587 3.90292 7.46817 4.68134 8.33309C5.45977 9.19801 6.72185 9.19801 7.50027 8.33309Z"
      fill="#DF252A"
    />
  </svg>