<svg width="12" height="12" viewBox="0 0 12 12" fill="none" xmlns="http://www.w3.org/2000/svg">
<path d="M0.430947 0.431191C0.641916 0.220286 0.928012 0.101807 1.22632 0.101807C1.52463 0.101807 1.81073 0.220286 2.0217 0.431191L5.9997 4.40919L9.9777 0.431191C10.1899 0.226263 10.4741 0.11287 10.769 0.115433C11.064 0.117996 11.3462 0.236311 11.5547 0.444896C11.7633 0.65348 11.8816 0.935644 11.8842 1.23062C11.8868 1.52559 11.7734 1.80976 11.5684 2.02194L7.59045 5.99994L11.5684 9.97794C11.7734 10.1901 11.8868 10.4743 11.8842 10.7693C11.8816 11.0642 11.7633 11.3464 11.5547 11.555C11.3462 11.7636 11.064 11.8819 10.769 11.8844C10.4741 11.887 10.1899 11.7736 9.9777 11.5687L5.9997 7.59069L2.0217 11.5687C1.80952 11.7736 1.52534 11.887 1.23037 11.8844C0.9354 11.8819 0.653235 11.7636 0.444651 11.555C0.236067 11.3464 0.117752 11.0642 0.115189 10.7693C0.112626 10.4743 0.226019 10.1901 0.430947 9.97794L4.40895 5.99994L0.430947 2.02194C0.220042 1.81097 0.101562 1.52488 0.101562 1.22657C0.101562 0.928257 0.220042 0.64216 0.430947 0.431191Z" />
</svg>
