<svg
    viewBox="0 0 44 25"
    fill="none"
    xmlns="http://www.w3.org/2000/svg"
    stroke="currentColor"
    fill="currentColor"
  >
    <path
      fill-rule="evenodd"
      clip-rule="evenodd"
      d="M19.8397 5.96486L18.218 3.20611C17.8685 2.60496 17.2207 2.23682 16.5264 2.23682H16.4238C15.394 2.23682 14.5598 3.07097 14.5598 4.10084C14.5598 5.13071 15.394 5.96486 16.4238 5.96486H19.8397ZM12.7704 5.96486C12.4861 5.40565 12.323 4.77189 12.323 4.10084C12.323 1.83606 14.1591 0 16.4238 0H16.5264C18.0129 0 19.3923 0.787547 20.1472 2.07372L21.2703 3.98434L22.3934 2.06906C23.1483 0.787548 24.5277 0 26.0142 0H26.1167C28.3815 0 30.2176 1.83606 30.2176 4.10084C30.2176 4.77189 30.0545 5.40565 29.7702 5.96486H31.7088C32.5336 5.96486 33.2 6.63124 33.2 7.45607V8.49912C31.1595 8.93454 29.3623 10.1732 28.2301 11.9297H10.8318C10.007 11.9297 9.34058 11.2633 9.34058 10.4385V7.45607C9.34058 6.63124 10.007 5.96486 10.8318 5.96486H12.7704ZM27.1225 14.6974C27.2078 14.2552 27.3286 13.829 27.4813 13.4209H22.7615V23.8594H29.472C30.1324 23.8594 30.7262 23.5728 31.1358 23.1173C28.1755 21.5382 26.4539 18.1643 27.1225 14.6974ZM26.1167 5.96486C27.1466 5.96486 27.9808 5.13071 27.9808 4.10084C27.9808 3.07097 27.1466 2.23682 26.1167 2.23682H26.0142C25.3199 2.23682 24.6768 2.60496 24.3226 3.20611L22.7009 5.96486H26.1167ZM11.5323 23.248C11.9331 23.627 12.4738 23.8594 13.0686 23.8594H19.7791V13.4209H12.7302L13.9025 13.6085C14.7205 13.7394 15.2775 14.5086 15.1466 15.3266L14.0576 22.133C13.9267 22.951 13.1575 23.5081 12.3395 23.3772L11.5323 23.248Z"
      fill="#DF252A"
    />
    <rect
      x="1.47876"
      y="11.9016"
      width="13.5881"
      height="9.35884"
      rx="1.5"
      transform="rotate(9.09029 1.47876 11.9016)"
      fill="#DF252A"
    />
    <path
      d="M5.26432 20.6749C5.11432 20.6749 5.02432 20.6449 4.99432 20.5849C4.96432 20.5309 4.94932 20.4499 4.94932 20.3419C4.94932 20.2759 4.96432 20.2009 4.99432 20.1169C5.03032 20.0269 5.07832 19.9279 5.13832 19.8199C5.18632 19.7299 5.30932 19.5229 5.50732 19.1989C5.71132 18.8689 5.96332 18.4609 6.26332 17.9749C6.56932 17.4889 6.91132 16.9429 7.28932 16.3369C7.67332 15.7249 8.07232 15.0889 8.48632 14.4289C8.57032 14.2969 8.65132 14.2219 8.72932 14.2039C8.80732 14.1799 8.89132 14.1679 8.98132 14.1679C9.14932 14.1679 9.25132 14.1979 9.28732 14.2579C9.32332 14.3119 9.34132 14.3929 9.34132 14.5009C9.34132 14.5669 9.32332 14.6419 9.28732 14.7259C9.25732 14.8039 9.21832 14.8909 9.17032 14.9869C9.14032 15.0469 9.07132 15.1639 8.96332 15.3379C8.85532 15.5119 8.71732 15.7309 8.54932 15.9949C8.38732 16.2589 8.19832 16.5619 7.98232 16.9039C7.77232 17.2459 7.54432 17.6119 7.29832 18.0019C7.05832 18.3859 6.80332 18.7909 6.53332 19.2169C6.26932 19.6369 6.00232 20.0629 5.73232 20.4949C5.68432 20.5669 5.61532 20.6149 5.52532 20.6389C5.43532 20.6629 5.34832 20.6749 5.26432 20.6749ZM5.57932 14.0779C5.99332 14.0779 6.29032 14.1859 6.47032 14.4019C6.65032 14.6179 6.74032 14.9209 6.74032 15.3109C6.74032 15.4729 6.71932 15.6559 6.67732 15.8599C6.64132 16.0579 6.56932 16.2439 6.46132 16.4179C6.35332 16.5919 6.20032 16.7389 6.00232 16.8589C5.81032 16.9789 5.55832 17.0389 5.24632 17.0389C5.01232 17.0389 4.81732 17.0059 4.66132 16.9399C4.50532 16.8739 4.38232 16.7839 4.29232 16.6699C4.20232 16.5499 4.13632 16.4119 4.09432 16.2559C4.05832 16.0999 4.04032 15.9319 4.04032 15.7519C4.04032 15.5419 4.06432 15.3379 4.11232 15.1399C4.16632 14.9359 4.25032 14.7559 4.36432 14.5999C4.48432 14.4439 4.64332 14.3179 4.84132 14.2219C5.03932 14.1259 5.28532 14.0779 5.57932 14.0779ZM5.48932 14.8429C5.37532 14.8429 5.28232 14.8759 5.21032 14.9419C5.14432 15.0019 5.09332 15.0769 5.05732 15.1669C5.02132 15.2569 4.99732 15.3499 4.98532 15.4459C4.97932 15.5419 4.97632 15.6259 4.97632 15.6979C4.97632 16.0819 5.09332 16.2739 5.32732 16.2739C5.42332 16.2739 5.50132 16.2409 5.56132 16.1749C5.62732 16.1029 5.67832 16.0189 5.71432 15.9229C5.75032 15.8209 5.77432 15.7189 5.78632 15.6169C5.79832 15.5089 5.80432 15.4189 5.80432 15.3469C5.80432 15.1909 5.78032 15.0679 5.73232 14.9779C5.68432 14.8879 5.60332 14.8429 5.48932 14.8429ZM9.18832 17.6869C9.60232 17.6869 9.89932 17.7949 10.0793 18.0109C10.2593 18.2269 10.3493 18.5299 10.3493 18.9199C10.3493 19.0819 10.3283 19.2649 10.2863 19.4689C10.2503 19.6669 10.1783 19.8529 10.0703 20.0269C9.96232 20.2009 9.80932 20.3479 9.61132 20.4679C9.41932 20.5879 9.16732 20.6479 8.85532 20.6479C8.62132 20.6479 8.42632 20.6149 8.27032 20.5489C8.11432 20.4829 7.99132 20.3929 7.90132 20.2789C7.81132 20.1589 7.74532 20.0209 7.70332 19.8649C7.66732 19.7089 7.64932 19.5409 7.64932 19.3609C7.64932 19.1509 7.67332 18.9469 7.72132 18.7489C7.77532 18.5449 7.85932 18.3649 7.97332 18.2089C8.09332 18.0529 8.25232 17.9269 8.45032 17.8309C8.64832 17.7349 8.89432 17.6869 9.18832 17.6869ZM9.09832 18.4519C8.98432 18.4519 8.89132 18.4849 8.81932 18.5509C8.75332 18.6109 8.70232 18.6859 8.66632 18.7759C8.63032 18.8659 8.60632 18.9589 8.59432 19.0549C8.58832 19.1509 8.58532 19.2349 8.58532 19.3069C8.58532 19.6909 8.70232 19.8829 8.93632 19.8829C9.03232 19.8829 9.11032 19.8499 9.17032 19.7839C9.23632 19.7119 9.28732 19.6279 9.32332 19.5319C9.35932 19.4299 9.38332 19.3279 9.39532 19.2259C9.40732 19.1179 9.41332 19.0279 9.41332 18.9559C9.41332 18.7999 9.38932 18.6769 9.34132 18.5869C9.29332 18.4969 9.21232 18.4519 9.09832 18.4519Z"
      fill="white"
    />
    <circle
      cx="35.0646"
      cy="16.2244"
      r="7.49247"
      transform="rotate(10.9155 35.0646 16.2244)"
      fill="#DF252A"
    />
    <path
      d="M35.4625 12.1523C35.6499 11.8131 36.1618 11.9118 36.2096 12.2964L36.4919 14.5677C36.5133 14.7397 36.643 14.8783 36.8131 14.9111L39.0605 15.3446C39.441 15.4179 39.5053 15.9353 39.1544 16.0996L37.0814 17.07C36.9245 17.1434 36.8327 17.3096 36.8541 17.4816L37.1363 19.7529C37.1841 20.1374 36.7119 20.3585 36.4473 20.0755L34.8838 18.4038C34.7654 18.2773 34.579 18.2413 34.4221 18.3148L32.3491 19.2852C31.9982 19.4494 31.6421 19.0687 31.8294 18.7295L32.9361 16.726C33.0199 16.5743 32.9965 16.3859 32.8781 16.2593L31.3147 14.5877C31.05 14.3047 31.3021 13.8483 31.6826 13.9217L33.93 14.3551C34.1001 14.3879 34.2721 14.3075 34.3559 14.1558L35.4625 12.1523Z"
      fill="white"
    />
  </svg>